{"title":"True Grit 2010 XViD BRRip DTRG - SAFCuk009","uid":6419692,"size":1433178226,"categoryP":"video","categoryS":"movies","magnet":"?xt=urn:btih:0a10273315bee1414e254df3dca8fc49d255dd9d&amp;dn=True+Grit+2010+XViD+BRRip+DTRG+-+SAFCuk009&amp;tr=udp%3A%2F%2Ftracker.openbittorrent.com%3A80&amp;tr=udp%3A%2F%2Fopen.demonii.com%3A1337&amp;tr=udp%3A%2F%2Ftracker.coppersurfer.tk%3A6969&amp;tr=udp%3A%2F%2Fexodus.desync.com%3A6969","seeders":0,"leechers":1,"uploader":"SAFCukO09","files":3,"time":1306273929,"description":"Format : AVI\nFormat/Info : Audio Video Interleave\nFile size : 1.33 GiB\nDuration : 1h 47mn\nOverall bit rate : 1 772 Kbps\nWriting application : VirtualDubMod 1.5.10.3 | www.virtualdub-fr.org || (build 2550/release)\nWriting library : VirtualDubMod build 2550/release\n\nVideo\nID : 0\nFormat : MPEG-4 Visual\nFormat profile : Advanced Simple@L5\nFormat settings, BVOP : 1\nFormat settings, QPel : No\nFormat settings, GMC : No warppoints\nFormat settings, Matrix : Default (H.263)\nMuxing mode : Packed bitstream\nCodec ID : XVID\nCodec ID/Hint : XviD\nDuration : 1h 47mn\nBit rate : 1 314 Kbps\nWidth : 720 pixels\nHeight : 304 pixels\nDisplay aspect ratio : 2.35:1\nFrame rate : 23.976 fps\nColor space : YUV\nChroma subsampling : 4:2:0\nBit depth : 8 bits\nScan type : Progressive\nCompression mode : Lossy\nBits/(Pixel*Frame) : 0.250\nStream size : 1 014 MiB (74%)\nWriting library : XviD 58\n\nAudio\nID : 1\nFormat : AC-3\nFormat/Info : Audio Coding 3\nMode extension : CM (complete main)\nCodec ID : 2000\nDuration : 1h 47mn\nBit rate mode : Constant\nBit rate : 448 Kbps\nChannel(s) : 6 channels\nChannel positions : Front: L C R, Side: L R, LFE\nSampling rate : 48.0 KHz\nBit depth : 16 bits\nCompression mode : Lossy\nStream size : 346 MiB (25%)\nAlignment : Split accross interleaves\nInterleave, duration : 42 ms (1.00 video frame)\nInterleave, preload duration : 500 ms\n\n\n\n &lt;a href=&quot;\nhttp://www.imdb.com/title/tt1403865/&quot; rel=&quot;nofollow&quot; target=&quot;_NEW&quot;&gt;\nhttp://www.imdb.com/title/tt1403865/&lt;/a&gt;\n\n\n\n\n\n\n\n\nStoryline\n\nFollowing the murder of her father by hired hand Tom Chaney, 14-year-old farm girl Mattie Ross sets out to capture the killer. To aid her, she hires the toughest U.S. marshal she can find, a man with &quot;true grit,&quot; Reuben J. &quot;Rooster&quot; Cogburn. Mattie insists on accompanying Cogburn, whose drinking, sloth, and generally reprobate character do not augment her faith in him. Against his wishes, she joins him in his trek into the Indian Nations in search of Chaney. They are joined by Texas Ranger LaBoeuf, who wants Chaney for his own purposes. The unlikely trio find danger and surprises on the journey, and each has his or her &quot;grit&quot; tested.\n\n\n\n\n\n\n\n\n\n\n\n\n\n\n\nSource Used\n\nTrue.Grit.2010.720p.BluRay.x264-Felony ........Thanks\n\n\n\nGreetz to IMAGiNE,Flawl3ss,DiLLoN,BDK,NOiR,TOXiCiNK,THC,Ez,Rx,Boobyblue,TaRiQ786,LKRG,CrEwSaDe\n","torrent":{"xt":"urn:btih:0a10273315bee1414e254df3dca8fc49d255dd9d","amp;dn":"True+Grit+2010+XViD+BRRip+DTRG+-+SAFCuk009","amp;tr":["udp%3A%2F%2Ftracker.openbittorrent.com%3A80","udp%3A%2F%2Fopen.demonii.com%3A1337","udp%3A%2F%2Ftracker.coppersurfer.tk%3A6969","udp%3A%2F%2Fexodus.desync.com%3A6969"],"infoHash":"0a10273315bee1414e254df3dca8fc49d255dd9d","infoHashBuffer":{"type":"Buffer","data":[10,16,39,51,21,190,225,65,78,37,77,243,220,168,252,73,210,85,221,157]},"announce":[],"urlList":[]}}